<svg id="Capa_1" enable-background="new 0 0 496.247 496.247" height="512" viewBox="0 0 496.247 496.247" width="512" xmlns="http://www.w3.org/2000/svg"><g><g><path d="m476.332 149.051c0-22.923-18.583-41.506-41.506-41.506h-373.405c-22.923 0-41.506 18.583-41.506 41.506v304.344h456.417z" fill="#a59ca6"/></g><path d="m301.178 400.893c-9.249 0-17.898 4.575-23.103 12.221-1.168 1.716-3.107 2.744-5.183 2.744h-50.537c-2.076 0-4.015-1.029-5.183-2.745-5.204-7.645-13.852-12.22-23.1-12.22h-95.605c-11.548 0-20.909-9.361-20.909-20.909v-241.793c0-12.137 5.212-23.056 13.517-30.646h-29.654c-22.923 0-41.506 18.583-41.506 41.506v304.344h42.468 413.948v-10.86-41.641h-175.153z" fill="#8f8390"/><path d="m294.608 424.369-2.249 3.305c-3.484 5.12-9.277 8.185-15.47 8.185h-58.531c-6.193 0-11.985-3.064-15.47-8.185l-2.249-3.304c-1.48-2.175-3.94-3.476-6.57-3.476h-187.842c-3.439 0-6.227 2.788-6.227 6.227v9.389c0 24.134 19.565 43.699 43.699 43.699h408.848c24.135 0 43.699-19.565 43.699-43.699v-9.389c0-3.439-2.788-6.227-6.227-6.227h-188.841c-2.63-.001-5.09 1.3-6.57 3.475z" fill="#a59ca6"/><path d="m164.83 199.088h159.077c24.871 0 45.104-20.233 45.104-45.104v-46.438h-249.286v46.438c0 24.871 20.233 45.104 45.105 45.104z" fill="#8f8390"/><g><path d="m434.826 139.545c5.25 0 9.506 4.256 9.506 9.506v233.816c0 3.328-2.698 6.026-6.026 6.026h-380.364c-3.328 0-6.026-2.698-6.026-6.026v-233.816c0-5.25 4.256-9.506 9.506-9.506z" fill="#b3e5ee"/></g><path d="m164.83 199.088h159.077c24.871 0 45.104-20.233 45.104-45.104v-14.439h-249.286v14.439c0 24.871 20.233 45.104 45.105 45.104z" fill="#86d7e5"/><path d="m77.559 379.985v-240.44h-16.138c-5.25 0-9.506 4.256-9.506 9.506v233.816c0 3.328 2.698 6.026 6.026 6.026h21.631c-1.278-2.705-2.013-5.717-2.013-8.908z" fill="#86d7e5"/><g><path d="m323.907 179.088h-159.077c-13.865 0-25.104-11.24-25.104-25.104v-112.841c0-13.865 11.24-25.104 25.104-25.104h159.078c13.865 0 25.104 11.24 25.104 25.104v112.84c0 13.865-11.24 25.105-25.105 25.105z" fill="#d9f2f6"/><path d="m196.13 154.349c-13.865 0-25.104-11.24-25.104-25.104v-112.84c0-.123.008-.244.009-.366h-6.205c-13.865 0-25.104 11.24-25.104 25.104v112.84c0 13.865 11.24 25.104 25.104 25.104h159.078c13.742 0 24.898-11.043 25.095-24.739h-152.873z" fill="#b3e5ee"/><path d="m212.49 124.668v-54.209c0-9.163 9.954-14.86 17.855-10.218l46.131 27.104c7.797 4.581 7.797 15.855 0 20.436l-46.131 27.104c-7.901 4.642-17.855-1.054-17.855-10.217z" fill="#f9f7f7"/><g id="XMLID_249_"><g><path d="m320.534 350.903v37.99h-144.82v-37.99c0-14.128 5.63-27.678 15.66-37.661l14.28-14.228 24.43-24.061h38.17l22.34 24.061 14.28 14.228c10.03 9.983 15.66 23.533 15.66 37.661z" fill="#f9f7f7"/></g></g><path d="m290.431 298.853s-22.34-24.061-22.34-24.061h-21.371-16.8l-24.43 24.061-14.28 14.228c-10.03 9.983-15.66 23.533-15.66 37.661v37.99h37.1v-32.474c0-6.366 1.146-12.612 3.322-18.469 1.895-5.099 7.438-7.86 12.663-6.347 6.137 1.777 12.621 2.729 19.325 2.729 21.281 0 40.353-9.598 53.148-24.68.001 0-10.677-10.638-10.677-10.638z" fill="#f2eae7"/><circle cx="248.124" cy="264.636" fill="#f9f7f7" r="54.697"/><path d="m222.967 264.636c0-25.088 16.885-46.236 39.915-52.683-4.7-1.316-9.638-2.014-14.758-2.014-30.208 0-54.697 24.489-54.697 54.697s24.489 54.697 54.697 54.697c5.12 0 10.088-.697 14.788-2.013-23.03-6.447-39.945-27.596-39.945-52.684z" fill="#f2eae7"/></g></g></svg>