<svg id="Capa_1" enable-background="new 0 0 512 512" height="512" viewBox="0 0 512 512" width="512" xmlns="http://www.w3.org/2000/svg"><g><g><path d="m239.961 8.511c-123.826 7.791-224.151 108.523-231.504 232.375-3.528 59.433 13.913 114.657 45.586 159.023 1.552 2.174 1.937 4.954.978 7.448l-24.552 63.836c-2.488 6.47 3.869 12.827 10.338 10.338l63.837-24.553c2.493-.959 5.273-.574 7.448.978 44.366 31.673 99.59 49.115 159.022 45.586 123.853-7.353 224.585-107.679 232.375-231.505 9.412-149.609-113.918-272.939-263.528-263.526z" fill="#8cebaf"/></g><g><path d="m479.995 255.999c0 44.354-12.927 85.667-35.178 120.448-6.784 10.604-4.117 24.672 5.781 32.449l.358.281c33.188-42.179 53.039-95.344 53.039-153.178 0-136.963-111.03-247.993-247.993-247.993v.446c0 12.957 10.011 23.401 22.902 24.71 112.95 11.47 201.091 106.86 201.091 222.837z" fill="#fff"/></g><g><path d="m255.759 512c-53.566.001-104.547-16.286-148.315-47.532l-63.765 24.53c-5.987 2.302-12.522.915-17.057-3.621-4.535-4.535-5.922-11.071-3.619-17.057l24.552-63.835c-34.332-47.986-50.605-104.747-47.084-164.073 3.673-61.855 30.093-120.411 74.394-164.882 44.305-44.475 102.758-71.112 164.595-75.003 37.634-2.368 74.316 3.247 109.009 16.691 33.346 12.922 63.138 32.357 88.546 57.766 25.409 25.409 44.844 55.201 57.767 88.547 13.443 34.692 19.059 71.368 16.691 109.009-3.891 61.835-30.526 120.29-75.002 164.595-44.471 44.301-103.027 70.721-164.883 74.393-5.297.315-10.577.472-15.829.472zm-148.305-63.545c3.272 0 6.519 1.016 9.285 2.99 45.051 32.161 98.266 47.411 153.901 44.112 57.953-3.441 112.837-28.215 154.539-69.757 41.706-41.546 66.681-96.331 70.325-154.265 2.222-35.313-3.041-69.706-15.641-102.223-12.113-31.258-30.336-59.189-54.162-83.014-23.826-23.826-51.756-42.049-83.014-54.161-32.517-12.601-66.904-17.865-102.224-15.641l-.502-7.984.502 7.984c-57.932 3.644-112.717 28.62-154.263 70.326-41.543 41.703-66.317 96.585-69.757 154.538-3.304 55.635 11.95 108.852 44.11 153.901 3.13 4.383 3.853 9.978 1.935 14.967l-24.55 63.831 63.834-24.547c1.842-.708 3.766-1.057 5.682-1.057z" fill="#00bebe"/></g><g><path d="m256.001 511.992c-53.636 0-105.006-16.433-148.555-47.523l-63.767 24.529c-5.988 2.302-12.523.915-17.057-3.621-4.535-4.535-5.922-11.071-3.619-17.057l24.551-63.832c-31.113-43.483-47.546-94.853-47.546-148.489 0-31.284 5.581-61.847 16.587-90.838 1.569-4.131 6.188-6.207 10.319-4.64 4.13 1.568 6.207 6.187 4.639 10.318-10.315 27.171-15.545 55.822-15.545 85.159 0 50.283 15.403 98.439 44.544 139.26 3.131 4.383 3.854 9.98 1.936 14.971l-24.55 63.829 63.831-24.546c4.993-1.92 10.589-1.196 14.973 1.934 40.82 29.142 88.975 44.545 139.259 44.545 18.299 0 36.534-2.067 54.196-6.142 4.305-.993 8.6 1.69 9.594 5.996.994 4.305-1.69 8.6-5.996 9.593-18.841 4.35-38.285 6.554-57.794 6.554z" fill="#283246"/></g><g><path d="m407.995 311.998h-8c-8.836 0-16-7.163-16-16v-119.996h8c8.836 0 16 7.163 16 16z" fill="#fff"/></g><g><path d="m295.998 351.997h-143.996c-17.673 0-31.999-14.326-31.999-31.999v-127.997c0-17.673 14.326-31.999 31.999-31.999h143.996c17.673 0 31.999 14.326 31.999 31.999v127.997c0 17.672-14.326 31.999-31.999 31.999z" fill="#8cebaf"/></g><g><path d="m144.002 216.001v87.998c0 13.254 10.745 23.999 23.999 23.999h103.997c13.255 0 23.999 10.745 23.999 23.999 17.673 0 31.999-14.326 31.999-31.999v-127.997c0-17.673-14.327-31.999-31.999-31.999h-143.995c-17.673 0-31.999 14.326-31.999 31.999 13.254 0 23.999 10.745 23.999 24z" fill="#dcf8e1"/></g><path d="m391.996 168.002h-10.207c-5.604 0-11.06 1.976-15.364 5.562l-30.428 25.357v-6.92c0-22.055-17.944-39.999-39.999-39.999h-143.996c-22.055 0-39.999 17.943-39.999 39.999v127.997c0 22.055 17.944 39.999 39.999 39.999h143.996c22.055 0 39.999-17.943 39.999-39.999v-6.92l30.427 25.356c4.304 3.587 9.761 5.563 15.365 5.563h10.207c13.233 0 23.999-10.766 23.999-23.999v-127.997c0-13.233-10.767-23.999-23.999-23.999zm-71.999 151.996c0 13.233-10.766 23.999-23.999 23.999h-143.996c-13.233 0-23.999-10.766-23.999-23.999v-127.997c0-13.233 10.766-23.999 23.999-23.999h143.996c13.233 0 23.999 10.766 23.999 23.999zm79.998 0c0 4.411-3.589 8-8 8h-10.207c-1.868 0-3.686-.659-5.122-1.855l-40.67-33.892v-72.504l40.67-33.892c.001-.001.001-.001.001-.001 1.435-1.196 3.253-1.854 5.121-1.854h10.207c4.411 0 8 3.589 8 8z" fill="#00bebe"/><g><path d="m279.999 232c-13.233 0-23.999-10.766-23.999-23.999s10.766-23.999 23.999-23.999 23.999 10.766 23.999 23.999-10.766 23.999-23.999 23.999zm0-31.999c-4.411 0-8 3.589-8 8s3.589 8 8 8 8-3.589 8-8c-.001-4.411-3.589-8-8-8z" fill="#283246"/></g><g><path d="m255.999 359.997h-103.997c-22.055 0-39.999-17.943-39.999-39.999v-95.997c0-4.418 3.582-8 8-8s8 3.581 8 8v95.997c0 13.234 10.766 23.999 23.999 23.999h103.997c4.418 0 8 3.581 8 8 0 4.418-3.582 8-8 8z" fill="#283246"/></g></g></svg>